<?xml version="1.0" standalone="no"?>
<!DOCTYPE svg PUBLIC "-//W3C//DTD SVG 20010904//EN"
 "http://www.w3.org/TR/2001/REC-SVG-20010904/DTD/svg10.dtd">
<svg version="1.0" xmlns="http://www.w3.org/2000/svg"
 width="1344.000000pt" height="1344.000000pt" viewBox="0 0 1344.000000 1344.000000"
 preserveAspectRatio="xMidYMid meet">
<metadata>
Created by potrace 1.14, written by Peter Selinger 2001-2017
</metadata>
<g transform="translate(0.000000,1344.000000) scale(0.100000,-0.100000)"
fill="#000000" stroke="none">
<path d="M9148 12795 c-2 -2 -212 -6 -468 -9 -256 -4 -564 -9 -685 -11 -121
-2 -377 -7 -570 -10 -738 -11 -939 -15 -1220 -20 -159 -3 -436 -7 -615 -10
-179 -3 -449 -7 -600 -10 -151 -3 -419 -7 -595 -10 -176 -3 -435 -7 -575 -10
-218 -4 -599 -10 -1182 -19 -76 -1 -140 -5 -144 -9 -4 -4 60 -7 142 -8 82 0
205 -2 274 -4 231 -6 714 -17 870 -20 144 -3 390 -8 915 -20 239 -6 584 -14
885 -20 254 -5 729 -16 1350 -30 124 -3 329 -7 455 -10 387 -8 649 -14 910
-20 808 -20 889 -20 945 -1 115 37 170 76 170 122 0 31 -33 60 -105 91 -44 19
-150 44 -157 38z"/>
<path d="M10165 12779 c-366 -75 -649 -311 -799 -669 -108 -258 -97 -599 27
-870 146 -317 464 -560 807 -615 62 -10 253 -12 320 -3 227 30 439 137 610
308 125 124 244 319 275 450 1 3 7 23 13 45 31 110 43 305 26 430 -8 63 -10
73 -14 78 -1 1 -4 15 -6 30 -18 107 -111 304 -199 416 -164 213 -406 359 -670
405 -110 19 -283 17 -390 -5z"/>
<path d="M2366 12682 c-3 -5 1 -9 9 -9 8 0 12 4 9 9 -3 4 -7 8 -9 8 -2 0 -6
-4 -9 -8z"/>
<path d="M2430 12680 c0 -5 5 -10 11 -10 5 0 7 5 4 10 -3 6 -8 10 -11 10 -2 0
-4 -4 -4 -10z"/>
<path d="M6628 11974 c-2 -1 -158 -5 -348 -8 -190 -4 -430 -9 -535 -11 -104
-2 -314 -7 -465 -10 -544 -11 -748 -15 -960 -20 -118 -3 -330 -7 -470 -10
-140 -3 -347 -7 -460 -10 -113 -3 -335 -7 -495 -11 -159 -3 -362 -7 -450 -9
-356 -8 -887 -18 -997 -19 -65 -1 -118 -4 -118 -8 0 -5 46 -8 103 -8 56 0 165
-3 242 -5 215 -6 530 -15 740 -21 105 -2 264 -7 355 -9 91 -2 260 -7 375 -10
116 -3 280 -7 365 -10 85 -2 252 -7 370 -10 118 -3 303 -8 410 -11 107 -3 265
-7 350 -9 85 -2 245 -6 355 -9 110 -4 283 -8 385 -11 102 -3 275 -7 385 -10
110 -4 272 -8 360 -10 88 -2 273 -6 411 -10 215 -6 261 -4 315 9 111 29 189
80 189 124 0 28 -68 80 -137 103 -51 17 -94 23 -170 24 -57 1 -104 1 -105 -1z"/>
<path d="M7514 11774 c-75 -12 -152 -46 -204 -91 -18 -15 -68 -75 -111 -133
-43 -58 -82 -109 -86 -115 -5 -5 -46 -62 -93 -125 -46 -63 -134 -182 -195
-265 -61 -82 -205 -278 -320 -435 -116 -157 -257 -349 -315 -427 -58 -77 -170
-230 -250 -338 -80 -108 -194 -263 -253 -344 -60 -80 -161 -217 -225 -304 -64
-88 -176 -238 -248 -335 -72 -98 -130 -179 -128 -180 1 -2 195 132 431 299
235 166 457 323 493 348 36 24 107 74 157 110 51 36 125 89 164 116 148 103
562 396 776 548 91 65 184 128 207 141 164 95 320 70 467 -74 33 -32 234 -221
319 -300 19 -18 67 -62 106 -99 38 -36 102 -95 140 -131 38 -36 130 -122 204
-192 74 -69 154 -143 176 -165 55 -51 278 -259 324 -303 49 -46 265 -248 310
-290 19 -18 91 -85 160 -150 69 -65 141 -132 160 -150 19 -18 87 -81 150 -140
168 -158 180 -166 274 -186 78 -16 143 -8 231 31 27 12 720 305 875 370 36 15
79 33 95 40 17 7 134 57 260 110 127 54 351 149 498 211 148 63 271 114 273
114 2 0 28 11 58 25 30 14 57 25 60 25 3 0 29 11 58 24 29 13 82 36 118 51 36
14 79 32 95 40 17 7 55 23 85 36 30 12 59 26 65 31 5 4 15 8 22 8 7 0 46 15
85 33 40 18 137 60 215 92 138 58 166 77 100 70 -17 -2 -122 -7 -232 -10 -110
-4 -231 -8 -270 -10 -38 -2 -151 -6 -250 -10 -190 -6 -300 -10 -533 -20 -79
-3 -207 -8 -285 -10 -78 -3 -189 -7 -247 -10 -58 -3 -179 -8 -270 -11 -91 -3
-203 -7 -250 -9 -397 -17 -474 -16 -531 4 -31 10 -74 30 -97 45 -43 27 -42 26
-292 266 -91 87 -190 182 -220 211 -30 28 -134 127 -230 220 -96 92 -202 193
-235 224 -33 32 -138 132 -234 224 -217 208 -243 232 -437 418 -88 83 -189
180 -225 215 -108 103 -426 406 -519 495 -47 45 -101 92 -120 105 -86 59 -196
81 -306 62z"/>
<path d="M5906 11153 c-1 -1 -136 -4 -301 -8 -165 -3 -388 -7 -495 -10 -107
-2 -321 -7 -475 -10 -154 -3 -370 -8 -480 -10 -110 -2 -319 -7 -465 -10 -146
-3 -366 -8 -490 -10 -124 -3 -331 -7 -460 -10 -130 -3 -350 -7 -490 -10 -399
-9 -640 -14 -980 -20 -543 -11 -621 -13 -627 -19 -4 -3 20 -6 53 -6 32 -1 120
-3 194 -5 74 -2 245 -7 380 -10 135 -3 306 -8 380 -10 74 -2 234 -7 355 -10
121 -3 299 -7 395 -10 300 -9 559 -16 730 -20 91 -2 257 -6 370 -10 113 -3
286 -8 385 -10 366 -9 846 -21 1150 -30 222 -7 403 -12 796 -21 253 -6 292 -5
344 11 232 67 240 166 21 232 -41 13 -280 26 -290 16z"/>
<path d="M593 11033 c9 -2 23 -2 30 0 6 3 -1 5 -18 5 -16 0 -22 -2 -12 -5z"/>
<path d="M2099 8291 c-243 -326 -687 -917 -880 -1171 -110 -146 -219 -290
-242 -320 -37 -50 -227 -298 -492 -645 -55 -71 -105 -137 -112 -145 -7 -8 -62
-80 -123 -160 -136 -179 -157 -201 -209 -225 l-41 -18 0 -89 c0 -82 1 -88 20
-88 42 0 117 -62 171 -140 13 -19 29 -42 36 -50 7 -8 58 -73 113 -145 56 -71
111 -143 124 -160 13 -16 76 -97 140 -180 63 -82 121 -156 127 -163 6 -7 281
-361 610 -785 330 -425 605 -779 612 -787 7 -8 43 -56 81 -105 38 -50 93 -119
121 -155 29 -36 156 -200 284 -365 127 -165 237 -307 244 -315 7 -8 44 -55 82
-105 38 -49 169 -218 290 -375 122 -157 306 -395 409 -530 206 -268 260 -329
321 -365 100 -59 17 -56 1380 -55 688 0 1274 2 1304 4 30 2 71 12 93 23 38 17
39 19 33 56 -8 55 -34 101 -102 182 -32 39 -148 185 -257 325 -110 140 -223
284 -251 320 -29 36 -175 223 -326 415 -151 193 -279 357 -286 365 -19 23
-677 863 -831 1060 -75 96 -139 177 -142 180 -3 3 -37 46 -75 95 -38 50 -75
97 -82 105 -7 8 -66 83 -130 166 -153 196 -167 213 -238 303 -34 42 -108 137
-165 211 -58 74 -112 144 -122 155 -9 11 -95 121 -192 245 -204 261 -224 287
-378 480 -140 177 -162 210 -182 277 l-15 52 48 79 c52 88 112 168 202 276 15
17 111 144 214 281 104 138 198 262 209 276 12 15 29 37 38 50 9 13 43 60 76
104 32 44 307 418 611 830 304 413 563 764 576 780 14 17 25 32 25 35 0 4 -16
12 -36 19 -29 11 -282 14 -1258 16 -1017 2 -1228 5 -1266 17 l-45 14 -116
-155z"/>
<path d="M8502 7003 c-212 -42 -390 -215 -442 -428 -13 -53 -13 -110 -5 -1615
19 -3870 18 -3748 34 -3813 23 -96 92 -217 166 -290 120 -118 229 -170 370
-178 121 -6 1636 -4 1725 3 99 7 175 33 259 89 105 70 179 158 232 275 62 136
58 -49 59 2861 0 1910 -3 2677 -11 2714 -36 167 -145 282 -341 360 -52 20 -72
21 -758 25 -388 3 -822 6 -965 7 -175 1 -281 -2 -323 -10z"/>
</g>
</svg>
